<?xml version="1.0" encoding="UTF-8"?>
<svg enable-background="new 0 0 566.3 566.3" version="1.1" viewBox="0 0 566.3 566.3" xml:space="preserve" xmlns="http://www.w3.org/2000/svg">
<style type="text/css">
	.st0{fill:#FEED01;}
</style>
<circle class="st0" cx="283.1" cy="283.1" r="283.1"/>
<path d="m264.1 505.9 10.3-4.8s-2-6.9-10.3-11.3c-8.3-4.5-18.9-2.3-23.7 6s-0.8 17.4 4.7 20.9c5.6 3.3 17.2 6.8 13.8 12.6-2.1 3.7-8.5 2.4-10.7-0.6-1.4-1.9-2.4-3.3-2.5-5.1l-10.9 5.8s1.6 7.9 10.7 11.6c7.6 3.1 15.6 2 20.6-1.3 2.6-1.7 4.5-4.6 5.3-7.1 2.7-8.1 0.4-16.3-8-21.1-5.2-3-14.4-6.2-11.3-10.8 1.7-2.6 4.9-2.4 7.7-0.7 2.1 1.3 3.2 3.8 4.3 5.9z"/>
<path d="m82.3 381.5 9.1 5.9s5.2-4.6 4.8-14c-0.3-9.5-7.5-17.5-17.1-17.5s-16 9.1-16 15.5c0 6.5 3 17.3-3.7 17.3-4.3 0-6-5-5.1-9 0.5-2.3 2.2-4 3.6-5.1l-10.6-6.6s-6.1 5.4-4.7 15.1c1.1 8.1 6.1 14.4 11.5 17.1 2.7 1.4 6.3 1.6 8.8 1 8.4-1.7 14.3-7.9 14.2-17.6-0.1-6-1.9-15.5 3.7-15.3 3.1 0.1 4.6 3.5 4.5 6.7-0.1 2.7-1.4 5.2-3 6.5z"/>
<polygon points="116.3 426.4 125.3 419.8 102.8 388.9 93.8 395.4 101.3 405.7 68.7 429.5 76.2 439.8 108.8 416.1"/>
<polygon points="136.2 445.2 140.9 449.9 148.3 442.5 130.5 424.7 123.1 432 127.8 436.7 106.8 457.7 102.1 453 94.8 460.4 112.6 478.2 120 470.8 115.3 466.2"/>
<polygon points="459.7 458.1 439 436.6 443.8 432 436.5 424.4 418.2 442 425.5 449.6 430.3 445 451.1 466.5 446.3 471.1 453.6 478.7 471.9 461 464.5 453.5"/>
<polygon points="342.9 524.6 336.9 495.5 343.4 494.2 341.3 484 316.6 489.1 318.7 499.3 325.2 498 331.2 527 324.8 528.4 326.9 538.6 351.5 533.5 349.4 523.2"/>
<polygon points="164.5 454.3 153.3 446.7 126.2 486.6 126.2 486.6 124.6 488.9 153.5 508.6 159.9 499.2 142.1 487"/>
<polygon points="195.2 472 182.9 466.7 163.7 510.9 163.7 510.9 162.6 513.5 194.7 527.4 199.2 517 179.5 508.4"/>
<polygon points="296.6 530.1 294.8 490.5 281.3 491.1 283.5 539.3 283.5 539.3 283.6 542.1 318.6 540.5 318.1 529.2"/>
<path d="m359.7 476.6-12.1 5 19.4 47.3 12.1-5-6.9-16.9c12.2-4.8 22.2-11.7 15.1-26.2-6.9-14-23.2-6-27.6-4.2zm14.6 17.1c-1.5 1.7-6.1 3.4-6.1 3.4l-4.5-11s4.5-2.4 6.9-2.2c1.9 0.1 3.8 1.1 4.7 3.7 0.9 2.5 0.2 4.7-1 6.1z"/>
<path d="m424.3 456.1c-9.7-12.2-23.9-0.9-27.8 1.7l-10.8 7.5 29.1 42.1 10.8-7.5-10.4-15c10.9-7.2 19.1-16.1 9.1-28.8zm-9.9 15.4c-1.1 2-5.3 4.6-5.3 4.6l-6.7-9.7s3.9-3.3 6.3-3.6c1.9-0.3 3.9 0.3 5.4 2.6 1.3 2.2 1.2 4.4 0.3 6.1z"/>
<polygon points="497.4 428.1 504.6 418.4 463.4 388.1 456.2 397.8 475.9 412.3 448.7 409 441.6 418.7 482.8 449.2 490 439.4 470.4 425 497.5 428.2"/>
<ellipse cx="176.5" cy="211.2" rx="62.6" ry="141.2"/>
<ellipse cx="389.6" cy="211.2" rx="62.6" ry="141.2"/>
<path d="m528.1 371.6-25.4-11.8-5.5 11.9-2.6 5.5 8.8 4.1 2.6-5.6s3.5 1.5 3.9 1.9c0.3 0.3 0.7 0.5 1 0.8 0.7 0.9 1.1 2 1.1 3.2 0 1-0.3 1.9-0.7 2.6-0.9 1.6-2.6 2.6-4.6 2.6-0.3 0-1.7-0.3-2.1-0.4-1.3-0.3-8.5-3.3-10.5-4.2l-1.4-0.6c-3.6-1.6-8.4-4.3-8.9-4.7-1.2-1-2-2.5-2-4.2 0-2.3 1.4-4.2 3.5-5 0.8-0.2 2.1-0.3 2.9-0.1s2.3 0.8 2.3 0.8l5.3-11.3s-3.5-2.5-9.6-2.5-15.9 8.7-15.9 20.5c0 9.6 7.6 13.9 14.4 17s16 8.9 25.3 7.2c12.6-2.4 15.7-17.8 12.4-21.1l2.8-0.4 2.9-6.2z"/>
</svg>
