<?xml version="1.0" encoding="UTF-8"?>
<svg data-name="Layer 1" version="1.1" viewBox="0 0 640 640" xmlns="http://www.w3.org/2000/svg" xmlns:cc="http://creativecommons.org/ns#" xmlns:dc="http://purl.org/dc/elements/1.1/" xmlns:rdf="http://www.w3.org/1999/02/22-rdf-syntax-ns#">
 <defs>
  <style>.cls-1{fill:#fff;}</style>
 </defs>
 <title>the-lab</title>
 <circle cx="320" cy="320" r="320"/>
 <path class="cls-1" d="M534.47,462.77L360.18,248.48a7.92,7.92,0,0,1-1.73-5.81l8.43-81.49a7.92,7.92,0,0,1,7.11-7.07l10-1a7.92,7.92,0,0,0,7.12-7.11l3.6-36.54a7.92,7.92,0,0,0-8.33-8.68L365.3,102a25,25,0,0,0,.17-3.54c-0.19-8.78-5.56-15.3-12.46-15.14-9.46.22-17.89,8.52-17.6,17.29a25.28,25.28,0,0,0,.29,3.09L315,104.9a21.68,21.68,0,0,0-2.68-10.82c-4.11-7.64-11.52-9.81-19.18-5.51s-10.35,11.64-11.32,18.17v0.06l-44.26,2.53a7.92,7.92,0,0,0-7.34,9.31L237.65,160a7.92,7.92,0,0,0,8.56,6.48l14.51-1.41a7.92,7.92,0,0,1,8.67,7.46l4,74a7.92,7.92,0,0,1-1.78,5.44L105.71,454.3a7.92,7.92,0,0,0-1.32,7.71l22.31,61.84a7.92,7.92,0,0,0,7.53,5.23l371.14-3.58a7.92,7.92,0,0,0,7.11-4.59l23-49.81A7.92,7.92,0,0,0,534.47,462.77Z"/>
 <path d="M353.77,371.59l-62.53,2.57a1.19,1.19,0,0,0-1.05.74l-35.48,88a1.19,1.19,0,0,0-.08.54l1.27,15.67a1.19,1.19,0,0,1-2.11.84l-14.87-18.47a1.19,1.19,0,0,0-1-.44l-30.05.85a1.19,1.19,0,0,1-1-1.83l54.78-84.48a1.19,1.19,0,0,0-1-1.83L206.9,376a1.19,1.19,0,0,0-.9.48L130.71,477.25a1.19,1.19,0,0,0-.2,1l6.4,24.78a1.19,1.19,0,0,0,1.19.89L297,498.38a1.19,1.19,0,0,0,1.12-.92l5-21.84a1.19,1.19,0,0,1,1-.92l21-2.44a1.19,1.19,0,0,1,1.32,1.08l2.21,25.77a1.19,1.19,0,0,0,1.2,1.09l51-.76a1.19,1.19,0,0,0,1.14-1.44L355,372.52A1.19,1.19,0,0,0,353.77,371.59ZM304.3,456.51l12.94-49a1.19,1.19,0,0,1,2.33.16l5.55,46.69a1.19,1.19,0,0,1-1,1.32L305.59,458A1.19,1.19,0,0,1,304.3,456.51Z"/>
 <path d="m498.38 454.47c-8.88-25.28-33.89-31.16-41.27-32.37a1.18 1.18 0 0 1-0.77-1.85c2.56-3.57 7.44-13.33 0.84-30-8.55-21.58-39.59-20.59-39.59-20.59l-51.83 1.56a1.19 1.19 0 0 0-1.12 1.45l28.5 125.63a1.19 1.19 0 0 0 1.18 0.92l72.45-1.33h0.08c1.53-0.14 45.21-4.51 31.53-43.42zm-92.83-61.58 6.85 0.43h0.15c1.21-0.09 17.79-1.16 19.73 8.57 2.56 12.81-7.63 14.83-8.5 15h-0.11l-12.33 1a1.19 1.19 0 0 1-1.25-0.89l-5.77-22.6a1.19 1.19 0 0 1 1.23-1.51zm35.86 81.51-14.35 0.46a1.2 1.2 0 0 1-1.21-0.95l-6.27-29.77a1.19 1.19 0 0 1 1.16-1.43l19-0.24s16.07 0.35 18.51 13.74c3.04 16.69-16.83 18.19-16.83 18.19z"/>
 <path d="M305,359l3.22-30.47a1.19,1.19,0,0,1,1.09-1.06l10-.8a1.19,1.19,0,0,1,1.28,1.15l0.88,30.2a1.19,1.19,0,0,0,1.23,1.15l27-.88a1.19,1.19,0,0,0,1.14-1.35l-9.44-68a1.19,1.19,0,0,0-1.26-1l-18.51,1.37a1.19,1.19,0,0,0-1.1,1.16l-0.45,21.23a1.19,1.19,0,0,1-1.19,1.16h-7.32a1.19,1.19,0,0,1-1.18-1.32l2.2-19.66a1.19,1.19,0,0,0-1.28-1.32l-55.91,4.59a1.19,1.19,0,0,0-.9.53L240,317.86a1.19,1.19,0,0,0,1.09,1.84l9.68-.77a1.19,1.19,0,0,1,1.15,1.73L230.33,362a1.19,1.19,0,0,0,1.11,1.74l23.11-1a1.19,1.19,0,0,0,1.06-.78l16.16-44.42a1.19,1.19,0,0,1,1.07-.78l9.3-.39a1.19,1.19,0,0,1,1.19,1.53l-12.76,41.92a1.19,1.19,0,0,0,1.18,1.53l32.12-1.26A1.19,1.19,0,0,0,305,359Z"/>
 <path d="M414.29,353.33l-15.22-22.41a1.19,1.19,0,0,0-1.14-.51l-18,2.44a1.19,1.19,0,0,1-1.29-.8l-2.2-6.61a1.19,1.19,0,0,1,.9-1.54l11.58-2.25a1.19,1.19,0,0,0,.8-1.76l-7.88-13.56a1.19,1.19,0,0,0-.95-0.59l-13.55-.66a1.19,1.19,0,0,1-.89-0.5l-2-2.91a1.19,1.19,0,0,1,.77-1.85l8.41-.81a1.19,1.19,0,0,0,.84-1.73l-5.9-11.15a1.19,1.19,0,0,0-1.15-.63l-20.2,1.75a1.19,1.19,0,0,0-1.06,1.41l13.36,68.15a1.19,1.19,0,0,0,1.22,1l52.68-2.56A1.19,1.19,0,0,0,414.29,353.33Z"/>
 <path class="cls-1" d="m258.58 44.37c-0.53-22.26 25.67-35.59 41.59-30.3a14.7 14.7 0 0 1 6.68 4.25c12.52 14.28 10.81 40.54-3.48 53-4.3 3.75-9.55 5-15 4.68-13.56-0.74-29.79-18.15-29.79-31.63z"/>
 <path class="cls-1" d="m342.87 68.25c-6.2-0.11-12.82-4.78-14-9.87-1.58-6.92 2.69-15.87 9-18.61 3.74-1.62 7.86-3.11 11.28 0.09a16.37 16.37 0 0 1 5.19 15.34 51.13 51.13 0 0 1-1.34 5.8c-1.63 5.35-4.46 7.35-10.13 7.25z"/>
 <path d="m324.36 153.66c-8.94-0.84-18.78-4.64-18-15.58 0.71-9.49 10.23-17.67 20.35-17.29 9.79 0.38 11.93 7.34 12.33 17.27 0.36 8.28-7.45 15.94-14.68 15.6z"/>
 <path d="m324.8 175.46c7.51-1.05 12.76 6.22 13 14.32 0.18 7.68-6.69 15-13.86 15.07-7.52 0-15.1-5.93-15.23-12-0.26-10.56 6-17.32 16.09-17.39z"/>
 <path d="m316.76 230a13.25 13.25 0 0 1-2.37 7.92c-4 5.24-7.79 6.39-15 4.4a13.82 13.82 0 0 1-10.65-12.56c-0.51-4.83 2.78-10.27 7.8-12.74 2.75-1.35 5.56-2.61 8.74-2.35 8.81 0.68 11.54 4.08 11.48 15.33z"/>
 <path d="m322.62 260.56c0-9.48 6.45-15.35 15.82-14.43 1.58 0.16 3.31 0.46 3.87 2 1.93 5.27 5 10.3 2.16 16.41-2.67 5.67-6.82 8.57-12.26 7.54-7.21-1.39-9.59-4.23-9.59-11.52z"/>
 <path d="m284.93 167.39c-0.22-5.9 3.66-10.08 9.54-10.27 5.45-0.17 9.41 3.94 9.57 9.93 0.16 6.16-3 10-8.63 10.23-6.28 0.3-10.24-3.43-10.48-9.89z"/>
 <path class="cls-1" d="m229.12 185.6c-20.49 2-38.4 11.65-54.85 23.55s-30.31 26.59-40 44.67c-8.87 16.62-12.11 35.77-13.31 54.37-0.92 14.31-0.67 30.21 3.62 44 4.88 15.71 29.59 9 24.69-6.81-3.27-10.64-3.27-21.23-2.85-33.38 0.46-14.63 2.75-30.17 9.09-43.49a99 99 0 0 1 30-36c12.54-9.41 27.57-19.72 43.62-21.29 6.94-0.68 12.8-5.31 12.8-12.8 0-6.46-5.84-13.48-12.8-12.8z"/>
 <path class="cls-1" d="m194.85 129.46c-28.63 7-52.68 26.2-73.46 46.29-21.65 20.94-38.16 45.07-49.16 73.17-10.65 27.2-11.6 57.9-9 86.66 2.08 22.78 5.92 47 16.08 67.78 3.07 6.26 11.83 7.92 17.51 4.59 6.34-3.72 7.66-11.25 4.59-17.51-0.24-0.49-1.93-4.38-0.81-1.64-0.78-1.89-1.45-3.82-2.11-5.76-1.6-4.68-2.88-9.47-4.07-14.27a235.22 235.22 0 0 1-5.59-33.2c-2.52-25.44-1.76-51.68 6.64-76 8.32-24.09 23.22-45 41.08-62.84 18.25-18.27 39.45-36.32 65.08-42.58 16-3.92 9.23-28.6-6.81-24.69z"/>
 <path class="cls-1" d="M396.8,211.2c16.14,1.58,30.95,12,43.62,21.29a101.31,101.31,0,0,1,30,36c6.63,13.12,8.48,29,9.09,43.49,0.51,12.07.4,22.78-2.89,33.38-4.91,15.81,19.81,22.52,24.69,6.81,4.13-13.3,4.3-28.31,3.72-42.1-0.82-19.4-4.61-38.88-13.41-56.29s-22.72-31.76-38.27-43.42c-16.73-12.55-35.45-22.73-56.54-24.79-7-.68-12.8,6.34-12.8,12.8,0,7.49,5.86,12.12,12.8,12.8h0Z"/>
 <path class="cls-1" d="M424.27,154.15c25.07,6.12,45.59,23.49,63.63,41.15,18.2,17.81,32.82,38.39,41.83,62.36,9.08,24.14,9.65,50.5,7.52,75.91a238,238,0,0,1-5.39,33.61c-1.14,4.92-2.49,9.79-4,14.61-0.64,2-1.36,4-2.11,6q-0.86,2.13,0,0c-0.39.91-.82,1.8-1.25,2.68-3.07,6.27-1.75,13.8,4.59,17.51,5.68,3.33,14.45,1.67,17.51-4.59,9.92-20.25,13.52-43.58,15.88-65.77,3.06-28.81,1.86-59.3-8-86.75-10.2-28.27-27.18-52.63-48.42-73.66-20.94-20.73-45.75-40.6-74.93-47.73-16-3.92-22.84,20.77-6.81,24.69h0Z"/>
 <metadata>
  <rdf:RDF>
   <cc:Work rdf:about="">
    <dc:title>the-lab</dc:title>
   </cc:Work>
  </rdf:RDF>
 </metadata>
</svg>
