<?xml version="1.0" encoding="UTF-8"?>
<svg enable-background="new 0 0 443.93 443.93" version="1.1" viewBox="0 0 443.93 443.93" xml:space="preserve" xmlns="http://www.w3.org/2000/svg">
<style type="text/css">
	.st0{fill:#FFFFFF;}
</style>
<circle cx="221.96" cy="221.96" r="221.97"/>

	<path class="st0" d="M15.68,221.96c0,96,62.24,177.06,147.57,203.06v0.6C74.07,400.29,8.81,318.71,8.81,221.96   c0-96.73,65.27-178.31,154.44-203.66v0.6C77.92,44.91,15.68,125.98,15.68,221.96z"/>
	<path class="st0" d="m435.12 221.96c0 96.75-65.28 178.33-154.46 203.66v-0.5c85.49-25.9 147.88-107.05 147.88-203.15 0-96.09-62.39-177.25-147.88-203.15v-0.5c89.18 25.33 154.46 106.91 154.46 203.64z"/>
	<path class="st0" d="M35.26,221.96c0,83.87,53.63,155.03,128,180.06v0.67C85.41,378.28,29.04,306.59,29.04,221.96   S85.41,65.67,163.25,41.25v0.67C88.89,66.93,35.26,138.09,35.26,221.96z"/>
	<polygon class="st0" points="201.77 201.59 112.18 201.59 138.11 74.09 171.44 74.09 151.45 171.94 207.71 171.94"/>
	<path class="st0" d="m322.41 111.32c-1.71-4.12-3.85-7.37-7.07-9.19s-7.81-2.74-13.8-2.74c-1.76 0-3.61 0.09-5.56 0.26-1.95 0.18-5 0.57-6.72 1.13-4.09 1.34-6.19 2.91-7.39 4.21-1.21 1.3-2.4 3.22-2.56 5.45-0.23 3.3 1.98 6.15 5.46 6.74 4.17 0.71 9.95 1.26 14.43 1.85 4.47 0.59 8.79 1.35 12.95 2.3 4.16 0.94 8.06 2.15 11.71 3.62s6.8 3.44 9.44 5.92c2.64 2.47 5.82 5.71 7.21 9.42 1.38 3.71 2.24 8.4 1.87 13.7-0.62 8.95-2.77 16.66-6.45 23.13-3.68 6.48-8.45 11.8-14.31 15.98s-12.53 7.27-20 9.27-16.83 1.85-25.03 1.85c-13.37 0-24.18-2.68-32.43-8.03-8.25-5.36-13.83-11.45-16.75-23.46l29.82-12.86c1.41 3.19 2.71 5.66 4.36 7.84 1.55 2.04 3.23 3.57 5.01 4.98s4.49 2.48 7.03 3.13c2.53 0.65 5.62 0.97 9.26 0.97 2.46 0 4.85-0.18 7.16-0.53s4.41-1.03 6.3-2.03 4.26-2.08 6.3-4.59c2.8-3.44 3.49-6.18 3.7-9.12 0.13-1.88-0.85-3.8-1.89-4.92-1.8-1.95-6.08-2.69-9.09-3.28l-25.98-3.66c-9.27-1.65-15.69-5.89-20.13-11.25s-6.48-11.23-5.89-19.71c0.57-8.24 2.74-15.3 6.49-21.19s8.51-10.68 14.28-14.39 12.2-6.41 19.3-8.12c7.1-1.7 14.28-2.56 21.55-2.56 11.61 0 21.35 2 29.23 6 7.87 4 13.75 11.01 17.62 21.01l-29.43 12.87z"/>
	<path class="st0" d="m207.01 298.6c-2 9.84-5.17 18.31-9.51 25.4s-9.51 12.95-15.53 17.58-12.71 8.06-20.08 10.28-15.08 3.34-23.14 3.34c-7.28 0-13.88-0.88-19.81-2.64s-12.3-4.48-16.42-8.17-7.19-8.38-9.22-14.06-2.78-12.39-2.27-20.12c0.13-1.87 0.34-3.78 0.63-5.71 0.3-1.93 0.62-3.89 0.98-5.89l14.95-73.98h32.94l-14.95 73.98c-0.34 1.64-0.6 3.14-0.8 4.48-0.2 1.35-0.35 2.67-0.43 3.95-0.45 6.8 1.23 11 3.68 13.97 2.74 3.31 7.41 5.83 12.89 5.83 3.25 0 8.18-0.12 11.72-1.35 2.65-0.92 6.42-2.62 8.57-4.67s4.18-4.58 5.8-7.92 3.65-9.3 4.66-14.34l14.55-73.95h35.74l-14.95 73.99z"/>
	<path class="st0" d="m317.22 285.34c4.98-7.67 8.62-17.54 9.29-27.5 0.71-10.66-2.4-18.87-9.36-24.6-6.94-5.74-18.31-8.62-34.1-8.62h-46.85l-26.73 127.76h35.93l8.38-46.88h4.71c-0.08 1.29-0.04 2.43 0.05 3.54 0.1 1.1 1.37 4.09 1.75 5.03l17.47 38.31h40.26l-23.37-50.61c9.31-3.74 17.57-8.76 22.57-16.43zm-26.1-22.79c-0.41 5.88-2.3 10.2-5.67 12.94-3.38 2.76-8.04 4.13-14.02 4.13h-12.39l5.96-28.21h12.41c5.71 0 9.49 1.09 11.31 3.27 1.81 2.18 2.62 4.8 2.4 7.87z"/>
	
		<path class="st0" d="m280.66 41.24v0.57c13.82 4.62 26.92 10.83 39.09 18.42 1.47 0.23 2.92 0.49 4.34 0.8-13.45-8.27-28.02-14.96-43.43-19.79z"/>
		<path class="st0" d="m362.51 92.02c0.27 0.65 0.55 1.3 0.81 1.97 0.6 1.55 0.86 3.15 0.83 4.72 27.95 33.15 44.83 76.2 44.83 123.25 0 83.99-53.78 155.25-128.31 180.17v0.57c77.86-24.42 134.24-96.11 134.24-180.74 0-50.28-19.91-95.99-52.4-129.94z"/>
		<path class="st0" d="m78.84 308.85c-14.82-25.43-23.34-55.14-23.34-86.89 0-56.23 26.72-106.06 67.87-137.01l0.56-2.77c-44.7 30.7-73.99 81.85-73.99 139.78 0 34.78 10.57 67.12 28.68 94.06-0.04-2.16 0.01-4.37 0.17-6.64 0.01-0.17 0.03-0.35 0.05-0.53z"/>
		<path class="st0" d="m163.25 381.89v-0.75c-9.65-3.71-18.86-8.32-27.56-13.72-1.07-0.03-2.13-0.08-3.17-0.15 9.66 5.83 19.94 10.75 30.73 14.62z"/>
		<path class="st0" d="m388.39 221.96c0 51.68-22.58 97.96-58.2 129.14 0.1 0.95 0.09 1.91-0.04 2.86 38.75-31.18 63.52-78.72 63.52-132 0-42.15-15.52-80.7-41.18-110.41l-2.94 1.28c24.24 29.54 38.84 67.59 38.84 109.13z"/>
		<path class="st0" d="m280.66 381.13v0.67c12.27-4.43 23.89-10.2 34.67-17.13h-2.88c-9.91 6.58-20.55 12.13-31.79 16.46z"/>
		<path class="st0" d="m76.24 221.96c0-39.8 15.27-75.95 40.14-102.67l1.15-5.66c-29.35 27.16-47.66 65.65-47.66 108.33 0 21.81 4.8 42.51 13.38 61.17l1.95-9.67c-5.78-16.05-8.96-33.39-8.96-51.5z"/>
		<path class="st0" d="m373.76 221.96c0-26.21-6.92-50.82-19.05-72.22 0.06 1.69 0.04 3.38-0.08 5.08-0.11 1.56-0.27 3.09-0.46 4.59 8.62 19.02 13.45 40.2 13.45 62.54 0 42.89-17.74 81.53-46.11 108.71l1.23 2.66c31.3-27.28 51.02-67.06 51.02-111.36z"/>
		<path class="st0" d="m91.82 221.96c0 4.93 0.3 9.79 0.85 14.57l2.9-14.34c0.32-1.58 0.94-3.02 1.78-4.3 0.39-12.78 2.63-25.08 6.44-36.64l4.26-20.97c-10.33 18.28-16.23 39.31-16.23 61.68z"/>
		<path class="st0" d="m346.61 221.96c0 18.33-3.79 35.75-10.6 51.5-1.94 6.52-4.8 12.85-8.51 18.57-2.1 3.23-4.68 6.2-7.73 8.93-2.45 3.17-5.05 6.21-7.77 9.13l1.19 2.59c23.88-23.12 38.69-55.22 38.69-90.71 0-13.18-2.06-25.88-5.84-37.84-1.1 1.86-2.27 3.64-3.52 5.35 2.66 10.37 4.09 21.26 4.09 32.48z"/>
		<path class="st0" d="m331.49 230.69c0.24-2.88 0.37-5.79 0.37-8.73 0-6.77-0.65-13.39-1.87-19.81-0.41 0.31-0.81 0.63-1.23 0.93-1.31 0.93-2.66 1.81-4.04 2.65 0.77 5.29 1.18 10.71 1.18 16.23 0 0.87-0.02 1.73-0.04 2.59 1.89 1.67 3.84 3.69 5.63 6.14z"/>
	

</svg>
